<svg xmlns="http://www.w3.org/2000/svg" viewBox="0 0 399 264" width="399" height="264">
	<style>
		tspan { white-space:pre }
		.shp0 { fill: #e5e7eb } 
	</style>
	<path id="Layer" class="shp0" d="M-5 0L-1 0L-1 4L-5 4L-5 0Z" />
	<path id="Layer" class="shp0" d="M15 0L19 0L19 4L15 4L15 0Z" />
	<path id="Layer" class="shp0" d="M35 0L39 0L39 4L35 4L35 0Z" />
	<path id="Layer" class="shp0" d="M55 0L59 0L59 4L55 4L55 0Z" />
	<path id="Layer" class="shp0" d="M75 0L79 0L79 4L75 4L75 0Z" />
	<path id="Layer" class="shp0" d="M95 0L99 0L99 4L95 4L95 0Z" />
	<path id="Layer" class="shp0" d="M115 0L119 0L119 4L115 4L115 0Z" />
	<path id="Layer" class="shp0" d="M135 0L139 0L139 4L135 4L135 0Z" />
	<path id="Layer" class="shp0" d="M155 0L159 0L159 4L155 4L155 0Z" />
	<path id="Layer" class="shp0" d="M175 0L179 0L179 4L175 4L175 0Z" />
	<path id="Layer" class="shp0" d="M195 0L199 0L199 4L195 4L195 0Z" />
	<path id="Layer" class="shp0" d="M215 0L219 0L219 4L215 4L215 0Z" />
	<path id="Layer" class="shp0" d="M235 0L239 0L239 4L235 4L235 0Z" />
	<path id="Layer" class="shp0" d="M255 0L259 0L259 4L255 4L255 0Z" />
	<path id="Layer" class="shp0" d="M275 0L279 0L279 4L275 4L275 0Z" />
	<path id="Layer" class="shp0" d="M295 0L299 0L299 4L295 4L295 0Z" />
	<path id="Layer" class="shp0" d="M315 0L319 0L319 4L315 4L315 0Z" />
	<path id="Layer" class="shp0" d="M335 0L339 0L339 4L335 4L335 0Z" />
	<path id="Layer" class="shp0" d="M355 0L359 0L359 4L355 4L355 0Z" />
	<path id="Layer" class="shp0" d="M375 0L379 0L379 4L375 4L375 0Z" />
	<path id="Layer" class="shp0" d="M395 0L399 0L399 4L395 4L395 0Z" />
	<path id="Layer" class="shp0" d="M-5 20L-1 20L-1 24L-5 24L-5 20Z" />
	<path id="Layer" class="shp0" d="M15 20L19 20L19 24L15 24L15 20Z" />
	<path id="Layer" class="shp0" d="M35 20L39 20L39 24L35 24L35 20Z" />
	<path id="Layer" class="shp0" d="M55 20L59 20L59 24L55 24L55 20Z" />
	<path id="Layer" class="shp0" d="M75 20L79 20L79 24L75 24L75 20Z" />
	<path id="Layer" class="shp0" d="M95 20L99 20L99 24L95 24L95 20Z" />
	<path id="Layer" class="shp0" d="M115 20L119 20L119 24L115 24L115 20Z" />
	<path id="Layer" class="shp0" d="M135 20L139 20L139 24L135 24L135 20Z" />
	<path id="Layer" class="shp0" d="M155 20L159 20L159 24L155 24L155 20Z" />
	<path id="Layer" class="shp0" d="M175 20L179 20L179 24L175 24L175 20Z" />
	<path id="Layer" class="shp0" d="M195 20L199 20L199 24L195 24L195 20Z" />
	<path id="Layer" class="shp0" d="M215 20L219 20L219 24L215 24L215 20Z" />
	<path id="Layer" class="shp0" d="M235 20L239 20L239 24L235 24L235 20Z" />
	<path id="Layer" class="shp0" d="M255 20L259 20L259 24L255 24L255 20Z" />
	<path id="Layer" class="shp0" d="M275 20L279 20L279 24L275 24L275 20Z" />
	<path id="Layer" class="shp0" d="M295 20L299 20L299 24L295 24L295 20Z" />
	<path id="Layer" class="shp0" d="M315 20L319 20L319 24L315 24L315 20Z" />
	<path id="Layer" class="shp0" d="M335 20L339 20L339 24L335 24L335 20Z" />
	<path id="Layer" class="shp0" d="M355 20L359 20L359 24L355 24L355 20Z" />
	<path id="Layer" class="shp0" d="M375 20L379 20L379 24L375 24L375 20Z" />
	<path id="Layer" class="shp0" d="M395 20L399 20L399 24L395 24L395 20Z" />
	<path id="Layer" class="shp0" d="M-5 40L-1 40L-1 44L-5 44L-5 40Z" />
	<path id="Layer" class="shp0" d="M15 40L19 40L19 44L15 44L15 40Z" />
	<path id="Layer" class="shp0" d="M35 40L39 40L39 44L35 44L35 40Z" />
	<path id="Layer" class="shp0" d="M55 40L59 40L59 44L55 44L55 40Z" />
	<path id="Layer" class="shp0" d="M75 40L79 40L79 44L75 44L75 40Z" />
	<path id="Layer" class="shp0" d="M95 40L99 40L99 44L95 44L95 40Z" />
	<path id="Layer" class="shp0" d="M115 40L119 40L119 44L115 44L115 40Z" />
	<path id="Layer" class="shp0" d="M135 40L139 40L139 44L135 44L135 40Z" />
	<path id="Layer" class="shp0" d="M155 40L159 40L159 44L155 44L155 40Z" />
	<path id="Layer" class="shp0" d="M175 40L179 40L179 44L175 44L175 40Z" />
	<path id="Layer" class="shp0" d="M195 40L199 40L199 44L195 44L195 40Z" />
	<path id="Layer" class="shp0" d="M215 40L219 40L219 44L215 44L215 40Z" />
	<path id="Layer" class="shp0" d="M235 40L239 40L239 44L235 44L235 40Z" />
	<path id="Layer" class="shp0" d="M255 40L259 40L259 44L255 44L255 40Z" />
	<path id="Layer" class="shp0" d="M275 40L279 40L279 44L275 44L275 40Z" />
	<path id="Layer" class="shp0" d="M295 40L299 40L299 44L295 44L295 40Z" />
	<path id="Layer" class="shp0" d="M315 40L319 40L319 44L315 44L315 40Z" />
	<path id="Layer" class="shp0" d="M335 40L339 40L339 44L335 44L335 40Z" />
	<path id="Layer" class="shp0" d="M355 40L359 40L359 44L355 44L355 40Z" />
	<path id="Layer" class="shp0" d="M375 40L379 40L379 44L375 44L375 40Z" />
	<path id="Layer" class="shp0" d="M395 40L399 40L399 44L395 44L395 40Z" />
	<path id="Layer" class="shp0" d="M-5 60L-1 60L-1 64L-5 64L-5 60Z" />
	<path id="Layer" class="shp0" d="M15 60L19 60L19 64L15 64L15 60Z" />
	<path id="Layer" class="shp0" d="M35 60L39 60L39 64L35 64L35 60Z" />
	<path id="Layer" class="shp0" d="M55 60L59 60L59 64L55 64L55 60Z" />
	<path id="Layer" class="shp0" d="M75 60L79 60L79 64L75 64L75 60Z" />
	<path id="Layer" class="shp0" d="M95 60L99 60L99 64L95 64L95 60Z" />
	<path id="Layer" class="shp0" d="M115 60L119 60L119 64L115 64L115 60Z" />
	<path id="Layer" class="shp0" d="M135 60L139 60L139 64L135 64L135 60Z" />
	<path id="Layer" class="shp0" d="M155 60L159 60L159 64L155 64L155 60Z" />
	<path id="Layer" class="shp0" d="M175 60L179 60L179 64L175 64L175 60Z" />
	<path id="Layer" class="shp0" d="M195 60L199 60L199 64L195 64L195 60Z" />
	<path id="Layer" class="shp0" d="M215 60L219 60L219 64L215 64L215 60Z" />
	<path id="Layer" class="shp0" d="M235 60L239 60L239 64L235 64L235 60Z" />
	<path id="Layer" class="shp0" d="M255 60L259 60L259 64L255 64L255 60Z" />
	<path id="Layer" class="shp0" d="M275 60L279 60L279 64L275 64L275 60Z" />
	<path id="Layer" class="shp0" d="M295 60L299 60L299 64L295 64L295 60Z" />
	<path id="Layer" class="shp0" d="M315 60L319 60L319 64L315 64L315 60Z" />
	<path id="Layer" class="shp0" d="M335 60L339 60L339 64L335 64L335 60Z" />
	<path id="Layer" class="shp0" d="M355 60L359 60L359 64L355 64L355 60Z" />
	<path id="Layer" class="shp0" d="M375 60L379 60L379 64L375 64L375 60Z" />
	<path id="Layer" class="shp0" d="M395 60L399 60L399 64L395 64L395 60Z" />
	<path id="Layer" class="shp0" d="M-5 80L-1 80L-1 84L-5 84L-5 80Z" />
	<path id="Layer" class="shp0" d="M15 80L19 80L19 84L15 84L15 80Z" />
	<path id="Layer" class="shp0" d="M35 80L39 80L39 84L35 84L35 80Z" />
	<path id="Layer" class="shp0" d="M55 80L59 80L59 84L55 84L55 80Z" />
	<path id="Layer" class="shp0" d="M75 80L79 80L79 84L75 84L75 80Z" />
	<path id="Layer" class="shp0" d="M95 80L99 80L99 84L95 84L95 80Z" />
	<path id="Layer" class="shp0" d="M115 80L119 80L119 84L115 84L115 80Z" />
	<path id="Layer" class="shp0" d="M135 80L139 80L139 84L135 84L135 80Z" />
	<path id="Layer" class="shp0" d="M155 80L159 80L159 84L155 84L155 80Z" />
	<path id="Layer" class="shp0" d="M175 80L179 80L179 84L175 84L175 80Z" />
	<path id="Layer" class="shp0" d="M195 80L199 80L199 84L195 84L195 80Z" />
	<path id="Layer" class="shp0" d="M215 80L219 80L219 84L215 84L215 80Z" />
	<path id="Layer" class="shp0" d="M235 80L239 80L239 84L235 84L235 80Z" />
	<path id="Layer" class="shp0" d="M255 80L259 80L259 84L255 84L255 80Z" />
	<path id="Layer" class="shp0" d="M275 80L279 80L279 84L275 84L275 80Z" />
	<path id="Layer" class="shp0" d="M295 80L299 80L299 84L295 84L295 80Z" />
	<path id="Layer" class="shp0" d="M315 80L319 80L319 84L315 84L315 80Z" />
	<path id="Layer" class="shp0" d="M335 80L339 80L339 84L335 84L335 80Z" />
	<path id="Layer" class="shp0" d="M355 80L359 80L359 84L355 84L355 80Z" />
	<path id="Layer" class="shp0" d="M375 80L379 80L379 84L375 84L375 80Z" />
	<path id="Layer" class="shp0" d="M395 80L399 80L399 84L395 84L395 80Z" />
	<path id="Layer" class="shp0" d="M-5 100L-1 100L-1 104L-5 104L-5 100Z" />
	<path id="Layer" class="shp0" d="M15 100L19 100L19 104L15 104L15 100Z" />
	<path id="Layer" class="shp0" d="M35 100L39 100L39 104L35 104L35 100Z" />
	<path id="Layer" class="shp0" d="M55 100L59 100L59 104L55 104L55 100Z" />
	<path id="Layer" class="shp0" d="M75 100L79 100L79 104L75 104L75 100Z" />
	<path id="Layer" class="shp0" d="M95 100L99 100L99 104L95 104L95 100Z" />
	<path id="Layer" class="shp0" d="M115 100L119 100L119 104L115 104L115 100Z" />
	<path id="Layer" class="shp0" d="M135 100L139 100L139 104L135 104L135 100Z" />
	<path id="Layer" class="shp0" d="M155 100L159 100L159 104L155 104L155 100Z" />
	<path id="Layer" class="shp0" d="M175 100L179 100L179 104L175 104L175 100Z" />
	<path id="Layer" class="shp0" d="M195 100L199 100L199 104L195 104L195 100Z" />
	<path id="Layer" class="shp0" d="M215 100L219 100L219 104L215 104L215 100Z" />
	<path id="Layer" class="shp0" d="M235 100L239 100L239 104L235 104L235 100Z" />
	<path id="Layer" class="shp0" d="M255 100L259 100L259 104L255 104L255 100Z" />
	<path id="Layer" class="shp0" d="M275 100L279 100L279 104L275 104L275 100Z" />
	<path id="Layer" class="shp0" d="M295 100L299 100L299 104L295 104L295 100Z" />
	<path id="Layer" class="shp0" d="M315 100L319 100L319 104L315 104L315 100Z" />
	<path id="Layer" class="shp0" d="M335 100L339 100L339 104L335 104L335 100Z" />
	<path id="Layer" class="shp0" d="M355 100L359 100L359 104L355 104L355 100Z" />
	<path id="Layer" class="shp0" d="M375 100L379 100L379 104L375 104L375 100Z" />
	<path id="Layer" class="shp0" d="M395 100L399 100L399 104L395 104L395 100Z" />
	<path id="Layer" class="shp0" d="M-5 120L-1 120L-1 124L-5 124L-5 120Z" />
	<path id="Layer" class="shp0" d="M15 120L19 120L19 124L15 124L15 120Z" />
	<path id="Layer" class="shp0" d="M35 120L39 120L39 124L35 124L35 120Z" />
	<path id="Layer" class="shp0" d="M55 120L59 120L59 124L55 124L55 120Z" />
	<path id="Layer" class="shp0" d="M75 120L79 120L79 124L75 124L75 120Z" />
	<path id="Layer" class="shp0" d="M95 120L99 120L99 124L95 124L95 120Z" />
	<path id="Layer" class="shp0" d="M115 120L119 120L119 124L115 124L115 120Z" />
	<path id="Layer" class="shp0" d="M135 120L139 120L139 124L135 124L135 120Z" />
	<path id="Layer" class="shp0" d="M155 120L159 120L159 124L155 124L155 120Z" />
	<path id="Layer" class="shp0" d="M175 120L179 120L179 124L175 124L175 120Z" />
	<path id="Layer" class="shp0" d="M195 120L199 120L199 124L195 124L195 120Z" />
	<path id="Layer" class="shp0" d="M215 120L219 120L219 124L215 124L215 120Z" />
	<path id="Layer" class="shp0" d="M235 120L239 120L239 124L235 124L235 120Z" />
	<path id="Layer" class="shp0" d="M255 120L259 120L259 124L255 124L255 120Z" />
	<path id="Layer" class="shp0" d="M275 120L279 120L279 124L275 124L275 120Z" />
	<path id="Layer" class="shp0" d="M295 120L299 120L299 124L295 124L295 120Z" />
	<path id="Layer" class="shp0" d="M315 120L319 120L319 124L315 124L315 120Z" />
	<path id="Layer" class="shp0" d="M335 120L339 120L339 124L335 124L335 120Z" />
	<path id="Layer" class="shp0" d="M355 120L359 120L359 124L355 124L355 120Z" />
	<path id="Layer" class="shp0" d="M375 120L379 120L379 124L375 124L375 120Z" />
	<path id="Layer" class="shp0" d="M395 120L399 120L399 124L395 124L395 120Z" />
	<path id="Layer" class="shp0" d="M-5 140L-1 140L-1 144L-5 144L-5 140Z" />
	<path id="Layer" class="shp0" d="M15 140L19 140L19 144L15 144L15 140Z" />
	<path id="Layer" class="shp0" d="M35 140L39 140L39 144L35 144L35 140Z" />
	<path id="Layer" class="shp0" d="M55 140L59 140L59 144L55 144L55 140Z" />
	<path id="Layer" class="shp0" d="M75 140L79 140L79 144L75 144L75 140Z" />
	<path id="Layer" class="shp0" d="M95 140L99 140L99 144L95 144L95 140Z" />
	<path id="Layer" class="shp0" d="M115 140L119 140L119 144L115 144L115 140Z" />
	<path id="Layer" class="shp0" d="M135 140L139 140L139 144L135 144L135 140Z" />
	<path id="Layer" class="shp0" d="M155 140L159 140L159 144L155 144L155 140Z" />
	<path id="Layer" class="shp0" d="M175 140L179 140L179 144L175 144L175 140Z" />
	<path id="Layer" class="shp0" d="M195 140L199 140L199 144L195 144L195 140Z" />
	<path id="Layer" class="shp0" d="M215 140L219 140L219 144L215 144L215 140Z" />
	<path id="Layer" class="shp0" d="M235 140L239 140L239 144L235 144L235 140Z" />
	<path id="Layer" class="shp0" d="M255 140L259 140L259 144L255 144L255 140Z" />
	<path id="Layer" class="shp0" d="M275 140L279 140L279 144L275 144L275 140Z" />
	<path id="Layer" class="shp0" d="M295 140L299 140L299 144L295 144L295 140Z" />
	<path id="Layer" class="shp0" d="M315 140L319 140L319 144L315 144L315 140Z" />
	<path id="Layer" class="shp0" d="M335 140L339 140L339 144L335 144L335 140Z" />
	<path id="Layer" class="shp0" d="M355 140L359 140L359 144L355 144L355 140Z" />
	<path id="Layer" class="shp0" d="M375 140L379 140L379 144L375 144L375 140Z" />
	<path id="Layer" class="shp0" d="M395 140L399 140L399 144L395 144L395 140Z" />
	<path id="Layer" class="shp0" d="M-5 160L-1 160L-1 164L-5 164L-5 160Z" />
	<path id="Layer" class="shp0" d="M15 160L19 160L19 164L15 164L15 160Z" />
	<path id="Layer" class="shp0" d="M35 160L39 160L39 164L35 164L35 160Z" />
	<path id="Layer" class="shp0" d="M55 160L59 160L59 164L55 164L55 160Z" />
	<path id="Layer" class="shp0" d="M75 160L79 160L79 164L75 164L75 160Z" />
	<path id="Layer" class="shp0" d="M95 160L99 160L99 164L95 164L95 160Z" />
	<path id="Layer" class="shp0" d="M115 160L119 160L119 164L115 164L115 160Z" />
	<path id="Layer" class="shp0" d="M135 160L139 160L139 164L135 164L135 160Z" />
	<path id="Layer" class="shp0" d="M155 160L159 160L159 164L155 164L155 160Z" />
	<path id="Layer" class="shp0" d="M175 160L179 160L179 164L175 164L175 160Z" />
	<path id="Layer" class="shp0" d="M195 160L199 160L199 164L195 164L195 160Z" />
	<path id="Layer" class="shp0" d="M215 160L219 160L219 164L215 164L215 160Z" />
	<path id="Layer" class="shp0" d="M235 160L239 160L239 164L235 164L235 160Z" />
	<path id="Layer" class="shp0" d="M255 160L259 160L259 164L255 164L255 160Z" />
	<path id="Layer" class="shp0" d="M275 160L279 160L279 164L275 164L275 160Z" />
	<path id="Layer" class="shp0" d="M295 160L299 160L299 164L295 164L295 160Z" />
	<path id="Layer" class="shp0" d="M315 160L319 160L319 164L315 164L315 160Z" />
	<path id="Layer" class="shp0" d="M335 160L339 160L339 164L335 164L335 160Z" />
	<path id="Layer" class="shp0" d="M355 160L359 160L359 164L355 164L355 160Z" />
	<path id="Layer" class="shp0" d="M375 160L379 160L379 164L375 164L375 160Z" />
	<path id="Layer" class="shp0" d="M395 160L399 160L399 164L395 164L395 160Z" />
	<path id="Layer" class="shp0" d="M-5 180L-1 180L-1 184L-5 184L-5 180Z" />
	<path id="Layer" class="shp0" d="M15 180L19 180L19 184L15 184L15 180Z" />
	<path id="Layer" class="shp0" d="M35 180L39 180L39 184L35 184L35 180Z" />
	<path id="Layer" class="shp0" d="M55 180L59 180L59 184L55 184L55 180Z" />
	<path id="Layer" class="shp0" d="M75 180L79 180L79 184L75 184L75 180Z" />
	<path id="Layer" class="shp0" d="M95 180L99 180L99 184L95 184L95 180Z" />
	<path id="Layer" class="shp0" d="M115 180L119 180L119 184L115 184L115 180Z" />
	<path id="Layer" class="shp0" d="M135 180L139 180L139 184L135 184L135 180Z" />
	<path id="Layer" class="shp0" d="M155 180L159 180L159 184L155 184L155 180Z" />
	<path id="Layer" class="shp0" d="M175 180L179 180L179 184L175 184L175 180Z" />
	<path id="Layer" class="shp0" d="M195 180L199 180L199 184L195 184L195 180Z" />
	<path id="Layer" class="shp0" d="M215 180L219 180L219 184L215 184L215 180Z" />
	<path id="Layer" class="shp0" d="M235 180L239 180L239 184L235 184L235 180Z" />
	<path id="Layer" class="shp0" d="M255 180L259 180L259 184L255 184L255 180Z" />
	<path id="Layer" class="shp0" d="M275 180L279 180L279 184L275 184L275 180Z" />
	<path id="Layer" class="shp0" d="M295 180L299 180L299 184L295 184L295 180Z" />
	<path id="Layer" class="shp0" d="M315 180L319 180L319 184L315 184L315 180Z" />
	<path id="Layer" class="shp0" d="M335 180L339 180L339 184L335 184L335 180Z" />
	<path id="Layer" class="shp0" d="M355 180L359 180L359 184L355 184L355 180Z" />
	<path id="Layer" class="shp0" d="M375 180L379 180L379 184L375 184L375 180Z" />
	<path id="Layer" class="shp0" d="M395 180L399 180L399 184L395 184L395 180Z" />
	<path id="Layer" class="shp0" d="M-5 200L-1 200L-1 204L-5 204L-5 200Z" />
	<path id="Layer" class="shp0" d="M15 200L19 200L19 204L15 204L15 200Z" />
	<path id="Layer" class="shp0" d="M35 200L39 200L39 204L35 204L35 200Z" />
	<path id="Layer" class="shp0" d="M55 200L59 200L59 204L55 204L55 200Z" />
	<path id="Layer" class="shp0" d="M75 200L79 200L79 204L75 204L75 200Z" />
	<path id="Layer" class="shp0" d="M95 200L99 200L99 204L95 204L95 200Z" />
	<path id="Layer" class="shp0" d="M115 200L119 200L119 204L115 204L115 200Z" />
	<path id="Layer" class="shp0" d="M135 200L139 200L139 204L135 204L135 200Z" />
	<path id="Layer" class="shp0" d="M155 200L159 200L159 204L155 204L155 200Z" />
	<path id="Layer" class="shp0" d="M175 200L179 200L179 204L175 204L175 200Z" />
	<path id="Layer" class="shp0" d="M195 200L199 200L199 204L195 204L195 200Z" />
	<path id="Layer" class="shp0" d="M215 200L219 200L219 204L215 204L215 200Z" />
	<path id="Layer" class="shp0" d="M235 200L239 200L239 204L235 204L235 200Z" />
	<path id="Layer" class="shp0" d="M255 200L259 200L259 204L255 204L255 200Z" />
	<path id="Layer" class="shp0" d="M275 200L279 200L279 204L275 204L275 200Z" />
	<path id="Layer" class="shp0" d="M295 200L299 200L299 204L295 204L295 200Z" />
	<path id="Layer" class="shp0" d="M315 200L319 200L319 204L315 204L315 200Z" />
	<path id="Layer" class="shp0" d="M335 200L339 200L339 204L335 204L335 200Z" />
	<path id="Layer" class="shp0" d="M355 200L359 200L359 204L355 204L355 200Z" />
	<path id="Layer" class="shp0" d="M375 200L379 200L379 204L375 204L375 200Z" />
	<path id="Layer" class="shp0" d="M395 200L399 200L399 204L395 204L395 200Z" />
	<path id="Layer" class="shp0" d="M-5 220L-1 220L-1 224L-5 224L-5 220Z" />
	<path id="Layer" class="shp0" d="M15 220L19 220L19 224L15 224L15 220Z" />
	<path id="Layer" class="shp0" d="M35 220L39 220L39 224L35 224L35 220Z" />
	<path id="Layer" class="shp0" d="M55 220L59 220L59 224L55 224L55 220Z" />
	<path id="Layer" class="shp0" d="M75 220L79 220L79 224L75 224L75 220Z" />
	<path id="Layer" class="shp0" d="M95 220L99 220L99 224L95 224L95 220Z" />
	<path id="Layer" class="shp0" d="M115 220L119 220L119 224L115 224L115 220Z" />
	<path id="Layer" class="shp0" d="M135 220L139 220L139 224L135 224L135 220Z" />
	<path id="Layer" class="shp0" d="M155 220L159 220L159 224L155 224L155 220Z" />
	<path id="Layer" class="shp0" d="M175 220L179 220L179 224L175 224L175 220Z" />
	<path id="Layer" class="shp0" d="M195 220L199 220L199 224L195 224L195 220Z" />
	<path id="Layer" class="shp0" d="M215 220L219 220L219 224L215 224L215 220Z" />
	<path id="Layer" class="shp0" d="M235 220L239 220L239 224L235 224L235 220Z" />
	<path id="Layer" class="shp0" d="M255 220L259 220L259 224L255 224L255 220Z" />
	<path id="Layer" class="shp0" d="M275 220L279 220L279 224L275 224L275 220Z" />
	<path id="Layer" class="shp0" d="M295 220L299 220L299 224L295 224L295 220Z" />
	<path id="Layer" class="shp0" d="M315 220L319 220L319 224L315 224L315 220Z" />
	<path id="Layer" class="shp0" d="M335 220L339 220L339 224L335 224L335 220Z" />
	<path id="Layer" class="shp0" d="M355 220L359 220L359 224L355 224L355 220Z" />
	<path id="Layer" class="shp0" d="M375 220L379 220L379 224L375 224L375 220Z" />
	<path id="Layer" class="shp0" d="M395 220L399 220L399 224L395 224L395 220Z" />
	<path id="Layer" class="shp0" d="M-5 240L-1 240L-1 244L-5 244L-5 240Z" />
	<path id="Layer" class="shp0" d="M15 240L19 240L19 244L15 244L15 240Z" />
	<path id="Layer" class="shp0" d="M35 240L39 240L39 244L35 244L35 240Z" />
	<path id="Layer" class="shp0" d="M55 240L59 240L59 244L55 244L55 240Z" />
	<path id="Layer" class="shp0" d="M75 240L79 240L79 244L75 244L75 240Z" />
	<path id="Layer" class="shp0" d="M95 240L99 240L99 244L95 244L95 240Z" />
	<path id="Layer" class="shp0" d="M115 240L119 240L119 244L115 244L115 240Z" />
	<path id="Layer" class="shp0" d="M135 240L139 240L139 244L135 244L135 240Z" />
	<path id="Layer" class="shp0" d="M155 240L159 240L159 244L155 244L155 240Z" />
	<path id="Layer" class="shp0" d="M175 240L179 240L179 244L175 244L175 240Z" />
	<path id="Layer" class="shp0" d="M195 240L199 240L199 244L195 244L195 240Z" />
	<path id="Layer" class="shp0" d="M215 240L219 240L219 244L215 244L215 240Z" />
	<path id="Layer" class="shp0" d="M235 240L239 240L239 244L235 244L235 240Z" />
	<path id="Layer" class="shp0" d="M255 240L259 240L259 244L255 244L255 240Z" />
	<path id="Layer" class="shp0" d="M275 240L279 240L279 244L275 244L275 240Z" />
	<path id="Layer" class="shp0" d="M295 240L299 240L299 244L295 244L295 240Z" />
	<path id="Layer" class="shp0" d="M315 240L319 240L319 244L315 244L315 240Z" />
	<path id="Layer" class="shp0" d="M335 240L339 240L339 244L335 244L335 240Z" />
	<path id="Layer" class="shp0" d="M355 240L359 240L359 244L355 244L355 240Z" />
	<path id="Layer" class="shp0" d="M375 240L379 240L379 244L375 244L375 240Z" />
	<path id="Layer" class="shp0" d="M395 240L399 240L399 244L395 244L395 240Z" />
	<path id="Layer" class="shp0" d="M-5 260L-1 260L-1 264L-5 264L-5 260Z" />
	<path id="Layer" class="shp0" d="M15 260L19 260L19 264L15 264L15 260Z" />
	<path id="Layer" class="shp0" d="M35 260L39 260L39 264L35 264L35 260Z" />
	<path id="Layer" class="shp0" d="M55 260L59 260L59 264L55 264L55 260Z" />
	<path id="Layer" class="shp0" d="M75 260L79 260L79 264L75 264L75 260Z" />
	<path id="Layer" class="shp0" d="M95 260L99 260L99 264L95 264L95 260Z" />
	<path id="Layer" class="shp0" d="M115 260L119 260L119 264L115 264L115 260Z" />
	<path id="Layer" class="shp0" d="M135 260L139 260L139 264L135 264L135 260Z" />
	<path id="Layer" class="shp0" d="M155 260L159 260L159 264L155 264L155 260Z" />
	<path id="Layer" class="shp0" d="M175 260L179 260L179 264L175 264L175 260Z" />
	<path id="Layer" class="shp0" d="M195 260L199 260L199 264L195 264L195 260Z" />
	<path id="Layer" class="shp0" d="M215 260L219 260L219 264L215 264L215 260Z" />
	<path id="Layer" class="shp0" d="M235 260L239 260L239 264L235 264L235 260Z" />
	<path id="Layer" class="shp0" d="M255 260L259 260L259 264L255 264L255 260Z" />
	<path id="Layer" class="shp0" d="M275 260L279 260L279 264L275 264L275 260Z" />
	<path id="Layer" class="shp0" d="M295 260L299 260L299 264L295 264L295 260Z" />
	<path id="Layer" class="shp0" d="M315 260L319 260L319 264L315 264L315 260Z" />
	<path id="Layer" class="shp0" d="M335 260L339 260L339 264L335 264L335 260Z" />
	<path id="Layer" class="shp0" d="M355 260L359 260L359 264L355 264L355 260Z" />
	<path id="Layer" class="shp0" d="M375 260L379 260L379 264L375 264L375 260Z" />
	<path id="Layer" class="shp0" d="M395 260L399 260L399 264L395 264L395 260Z" />
	<path id="Layer" class="shp0" d="M-5 280L-1 280L-1 284L-5 284L-5 280Z" />
	<path id="Layer" class="shp0" d="M15 280L19 280L19 284L15 284L15 280Z" />
	<path id="Layer" class="shp0" d="M35 280L39 280L39 284L35 284L35 280Z" />
	<path id="Layer" class="shp0" d="M55 280L59 280L59 284L55 284L55 280Z" />
	<path id="Layer" class="shp0" d="M75 280L79 280L79 284L75 284L75 280Z" />
	<path id="Layer" class="shp0" d="M95 280L99 280L99 284L95 284L95 280Z" />
	<path id="Layer" class="shp0" d="M115 280L119 280L119 284L115 284L115 280Z" />
	<path id="Layer" class="shp0" d="M135 280L139 280L139 284L135 284L135 280Z" />
	<path id="Layer" class="shp0" d="M155 280L159 280L159 284L155 284L155 280Z" />
	<path id="Layer" class="shp0" d="M175 280L179 280L179 284L175 284L175 280Z" />
	<path id="Layer" class="shp0" d="M195 280L199 280L199 284L195 284L195 280Z" />
	<path id="Layer" class="shp0" d="M215 280L219 280L219 284L215 284L215 280Z" />
	<path id="Layer" class="shp0" d="M235 280L239 280L239 284L235 284L235 280Z" />
	<path id="Layer" class="shp0" d="M255 280L259 280L259 284L255 284L255 280Z" />
	<path id="Layer" class="shp0" d="M275 280L279 280L279 284L275 284L275 280Z" />
	<path id="Layer" class="shp0" d="M295 280L299 280L299 284L295 284L295 280Z" />
	<path id="Layer" class="shp0" d="M315 280L319 280L319 284L315 284L315 280Z" />
	<path id="Layer" class="shp0" d="M335 280L339 280L339 284L335 284L335 280Z" />
	<path id="Layer" class="shp0" d="M355 280L359 280L359 284L355 284L355 280Z" />
	<path id="Layer" class="shp0" d="M375 280L379 280L379 284L375 284L375 280Z" />
	<path id="Layer" class="shp0" d="M395 280L399 280L399 284L395 284L395 280Z" />
	<path id="Layer" class="shp0" d="M-5 300L-1 300L-1 304L-5 304L-5 300Z" />
	<path id="Layer" class="shp0" d="M15 300L19 300L19 304L15 304L15 300Z" />
	<path id="Layer" class="shp0" d="M35 300L39 300L39 304L35 304L35 300Z" />
	<path id="Layer" class="shp0" d="M55 300L59 300L59 304L55 304L55 300Z" />
	<path id="Layer" class="shp0" d="M75 300L79 300L79 304L75 304L75 300Z" />
	<path id="Layer" class="shp0" d="M95 300L99 300L99 304L95 304L95 300Z" />
	<path id="Layer" class="shp0" d="M115 300L119 300L119 304L115 304L115 300Z" />
	<path id="Layer" class="shp0" d="M135 300L139 300L139 304L135 304L135 300Z" />
	<path id="Layer" class="shp0" d="M155 300L159 300L159 304L155 304L155 300Z" />
	<path id="Layer" class="shp0" d="M175 300L179 300L179 304L175 304L175 300Z" />
	<path id="Layer" class="shp0" d="M195 300L199 300L199 304L195 304L195 300Z" />
	<path id="Layer" class="shp0" d="M215 300L219 300L219 304L215 304L215 300Z" />
	<path id="Layer" class="shp0" d="M235 300L239 300L239 304L235 304L235 300Z" />
	<path id="Layer" class="shp0" d="M255 300L259 300L259 304L255 304L255 300Z" />
	<path id="Layer" class="shp0" d="M275 300L279 300L279 304L275 304L275 300Z" />
	<path id="Layer" class="shp0" d="M295 300L299 300L299 304L295 304L295 300Z" />
	<path id="Layer" class="shp0" d="M315 300L319 300L319 304L315 304L315 300Z" />
	<path id="Layer" class="shp0" d="M335 300L339 300L339 304L335 304L335 300Z" />
	<path id="Layer" class="shp0" d="M355 300L359 300L359 304L355 304L355 300Z" />
	<path id="Layer" class="shp0" d="M375 300L379 300L379 304L375 304L375 300Z" />
	<path id="Layer" class="shp0" d="M395 300L399 300L399 304L395 304L395 300Z" />
	<path id="Layer" class="shp0" d="M-5 320L-1 320L-1 324L-5 324L-5 320Z" />
	<path id="Layer" class="shp0" d="M15 320L19 320L19 324L15 324L15 320Z" />
	<path id="Layer" class="shp0" d="M35 320L39 320L39 324L35 324L35 320Z" />
	<path id="Layer" class="shp0" d="M55 320L59 320L59 324L55 324L55 320Z" />
	<path id="Layer" class="shp0" d="M75 320L79 320L79 324L75 324L75 320Z" />
	<path id="Layer" class="shp0" d="M95 320L99 320L99 324L95 324L95 320Z" />
	<path id="Layer" class="shp0" d="M115 320L119 320L119 324L115 324L115 320Z" />
	<path id="Layer" class="shp0" d="M135 320L139 320L139 324L135 324L135 320Z" />
	<path id="Layer" class="shp0" d="M155 320L159 320L159 324L155 324L155 320Z" />
	<path id="Layer" class="shp0" d="M175 320L179 320L179 324L175 324L175 320Z" />
	<path id="Layer" class="shp0" d="M195 320L199 320L199 324L195 324L195 320Z" />
	<path id="Layer" class="shp0" d="M215 320L219 320L219 324L215 324L215 320Z" />
	<path id="Layer" class="shp0" d="M235 320L239 320L239 324L235 324L235 320Z" />
	<path id="Layer" class="shp0" d="M255 320L259 320L259 324L255 324L255 320Z" />
	<path id="Layer" class="shp0" d="M275 320L279 320L279 324L275 324L275 320Z" />
	<path id="Layer" class="shp0" d="M295 320L299 320L299 324L295 324L295 320Z" />
	<path id="Layer" class="shp0" d="M315 320L319 320L319 324L315 324L315 320Z" />
	<path id="Layer" class="shp0" d="M335 320L339 320L339 324L335 324L335 320Z" />
	<path id="Layer" class="shp0" d="M355 320L359 320L359 324L355 324L355 320Z" />
	<path id="Layer" class="shp0" d="M375 320L379 320L379 324L375 324L375 320Z" />
	<path id="Layer" class="shp0" d="M395 320L399 320L399 324L395 324L395 320Z" />
	<path id="Layer" class="shp0" d="M-5 340L-1 340L-1 344L-5 344L-5 340Z" />
	<path id="Layer" class="shp0" d="M15 340L19 340L19 344L15 344L15 340Z" />
	<path id="Layer" class="shp0" d="M35 340L39 340L39 344L35 344L35 340Z" />
	<path id="Layer" class="shp0" d="M55 340L59 340L59 344L55 344L55 340Z" />
	<path id="Layer" class="shp0" d="M75 340L79 340L79 344L75 344L75 340Z" />
	<path id="Layer" class="shp0" d="M95 340L99 340L99 344L95 344L95 340Z" />
	<path id="Layer" class="shp0" d="M115 340L119 340L119 344L115 344L115 340Z" />
	<path id="Layer" class="shp0" d="M135 340L139 340L139 344L135 344L135 340Z" />
	<path id="Layer" class="shp0" d="M155 340L159 340L159 344L155 344L155 340Z" />
	<path id="Layer" class="shp0" d="M175 340L179 340L179 344L175 344L175 340Z" />
	<path id="Layer" class="shp0" d="M195 340L199 340L199 344L195 344L195 340Z" />
	<path id="Layer" class="shp0" d="M215 340L219 340L219 344L215 344L215 340Z" />
	<path id="Layer" class="shp0" d="M235 340L239 340L239 344L235 344L235 340Z" />
	<path id="Layer" class="shp0" d="M255 340L259 340L259 344L255 344L255 340Z" />
	<path id="Layer" class="shp0" d="M275 340L279 340L279 344L275 344L275 340Z" />
	<path id="Layer" class="shp0" d="M295 340L299 340L299 344L295 344L295 340Z" />
	<path id="Layer" class="shp0" d="M315 340L319 340L319 344L315 344L315 340Z" />
	<path id="Layer" class="shp0" d="M335 340L339 340L339 344L335 344L335 340Z" />
	<path id="Layer" class="shp0" d="M355 340L359 340L359 344L355 344L355 340Z" />
	<path id="Layer" class="shp0" d="M375 340L379 340L379 344L375 344L375 340Z" />
	<path id="Layer" class="shp0" d="M395 340L399 340L399 344L395 344L395 340Z" />
	<path id="Layer" class="shp0" d="M-5 360L-1 360L-1 364L-5 364L-5 360Z" />
	<path id="Layer" class="shp0" d="M15 360L19 360L19 364L15 364L15 360Z" />
	<path id="Layer" class="shp0" d="M35 360L39 360L39 364L35 364L35 360Z" />
	<path id="Layer" class="shp0" d="M55 360L59 360L59 364L55 364L55 360Z" />
	<path id="Layer" class="shp0" d="M75 360L79 360L79 364L75 364L75 360Z" />
	<path id="Layer" class="shp0" d="M95 360L99 360L99 364L95 364L95 360Z" />
	<path id="Layer" class="shp0" d="M115 360L119 360L119 364L115 364L115 360Z" />
	<path id="Layer" class="shp0" d="M135 360L139 360L139 364L135 364L135 360Z" />
	<path id="Layer" class="shp0" d="M155 360L159 360L159 364L155 364L155 360Z" />
	<path id="Layer" class="shp0" d="M175 360L179 360L179 364L175 364L175 360Z" />
	<path id="Layer" class="shp0" d="M195 360L199 360L199 364L195 364L195 360Z" />
	<path id="Layer" class="shp0" d="M215 360L219 360L219 364L215 364L215 360Z" />
	<path id="Layer" class="shp0" d="M235 360L239 360L239 364L235 364L235 360Z" />
	<path id="Layer" class="shp0" d="M255 360L259 360L259 364L255 364L255 360Z" />
	<path id="Layer" class="shp0" d="M275 360L279 360L279 364L275 364L275 360Z" />
	<path id="Layer" class="shp0" d="M295 360L299 360L299 364L295 364L295 360Z" />
	<path id="Layer" class="shp0" d="M315 360L319 360L319 364L315 364L315 360Z" />
	<path id="Layer" class="shp0" d="M335 360L339 360L339 364L335 364L335 360Z" />
	<path id="Layer" class="shp0" d="M355 360L359 360L359 364L355 364L355 360Z" />
	<path id="Layer" class="shp0" d="M375 360L379 360L379 364L375 364L375 360Z" />
	<path id="Layer" class="shp0" d="M395 360L399 360L399 364L395 364L395 360Z" />
	<path id="Layer" class="shp0" d="M-5 380L-1 380L-1 384L-5 384L-5 380Z" />
	<path id="Layer" class="shp0" d="M15 380L19 380L19 384L15 384L15 380Z" />
	<path id="Layer" class="shp0" d="M35 380L39 380L39 384L35 384L35 380Z" />
	<path id="Layer" class="shp0" d="M55 380L59 380L59 384L55 384L55 380Z" />
	<path id="Layer" class="shp0" d="M75 380L79 380L79 384L75 384L75 380Z" />
	<path id="Layer" class="shp0" d="M95 380L99 380L99 384L95 384L95 380Z" />
	<path id="Layer" class="shp0" d="M115 380L119 380L119 384L115 384L115 380Z" />
	<path id="Layer" class="shp0" d="M135 380L139 380L139 384L135 384L135 380Z" />
	<path id="Layer" class="shp0" d="M155 380L159 380L159 384L155 384L155 380Z" />
	<path id="Layer" class="shp0" d="M175 380L179 380L179 384L175 384L175 380Z" />
	<path id="Layer" class="shp0" d="M195 380L199 380L199 384L195 384L195 380Z" />
	<path id="Layer" class="shp0" d="M215 380L219 380L219 384L215 384L215 380Z" />
	<path id="Layer" class="shp0" d="M235 380L239 380L239 384L235 384L235 380Z" />
	<path id="Layer" class="shp0" d="M255 380L259 380L259 384L255 384L255 380Z" />
	<path id="Layer" class="shp0" d="M275 380L279 380L279 384L275 384L275 380Z" />
	<path id="Layer" class="shp0" d="M295 380L299 380L299 384L295 384L295 380Z" />
	<path id="Layer" class="shp0" d="M315 380L319 380L319 384L315 384L315 380Z" />
	<path id="Layer" class="shp0" d="M335 380L339 380L339 384L335 384L335 380Z" />
	<path id="Layer" class="shp0" d="M355 380L359 380L359 384L355 384L355 380Z" />
	<path id="Layer" class="shp0" d="M375 380L379 380L379 384L375 384L375 380Z" />
	<path id="Layer" class="shp0" d="M395 380L399 380L399 384L395 384L395 380Z" />
	<path id="Layer" class="shp0" d="M-5 400L-1 400L-1 404L-5 404L-5 400Z" />
	<path id="Layer" class="shp0" d="M15 400L19 400L19 404L15 404L15 400Z" />
	<path id="Layer" class="shp0" d="M35 400L39 400L39 404L35 404L35 400Z" />
	<path id="Layer" class="shp0" d="M55 400L59 400L59 404L55 404L55 400Z" />
	<path id="Layer" class="shp0" d="M75 400L79 400L79 404L75 404L75 400Z" />
	<path id="Layer" class="shp0" d="M95 400L99 400L99 404L95 404L95 400Z" />
	<path id="Layer" class="shp0" d="M115 400L119 400L119 404L115 404L115 400Z" />
	<path id="Layer" class="shp0" d="M135 400L139 400L139 404L135 404L135 400Z" />
	<path id="Layer" class="shp0" d="M155 400L159 400L159 404L155 404L155 400Z" />
	<path id="Layer" class="shp0" d="M175 400L179 400L179 404L175 404L175 400Z" />
	<path id="Layer" class="shp0" d="M195 400L199 400L199 404L195 404L195 400Z" />
	<path id="Layer" class="shp0" d="M215 400L219 400L219 404L215 404L215 400Z" />
	<path id="Layer" class="shp0" d="M235 400L239 400L239 404L235 404L235 400Z" />
	<path id="Layer" class="shp0" d="M255 400L259 400L259 404L255 404L255 400Z" />
	<path id="Layer" class="shp0" d="M275 400L279 400L279 404L275 404L275 400Z" />
	<path id="Layer" class="shp0" d="M295 400L299 400L299 404L295 404L295 400Z" />
	<path id="Layer" class="shp0" d="M315 400L319 400L319 404L315 404L315 400Z" />
	<path id="Layer" class="shp0" d="M335 400L339 400L339 404L335 404L335 400Z" />
	<path id="Layer" class="shp0" d="M355 400L359 400L359 404L355 404L355 400Z" />
	<path id="Layer" class="shp0" d="M375 400L379 400L379 404L375 404L375 400Z" />
	<path id="Layer" class="shp0" d="M345 394L349 394L349 398L345 398L345 394Z" />
</svg>